<svg width="467.92" height="86.722" viewBox="0 0 467.92 86.722" xmlns="http://www.w3.org/2000/svg">
  <g
    id="svgGroup"
    stroke-linecap="round"
    fill-rule="evenodd"
    font-size="9pt"
    stroke="dimgray"
    stroke-width="5"
    fill="none"
    stroke-dasharray="1000"
  >
    <path
      d="M 249.121 85.938 L 228.174 85.938 L 218.945 0 L 235.742 0 L 240.479 54.248 L 245.313 0 L 261.328 0 L 265.918 54.248 L 270.508 0 L 287.5 0 L 278.125 85.938 L 257.52 85.938 L 253.223 44.58 L 249.121 85.938 Z M 17.09 85.938 L 0 85.938 L 0 0 L 17.09 0 L 17.09 30.713 L 25.195 30.713 L 25.195 0 L 42.285 0 L 42.285 85.938 L 25.195 85.938 L 25.195 46.973 L 17.09 46.973 L 17.09 85.938 Z M 49.023 62.061 L 49.023 32.617 A 28.341 28.341 0 0 1 49.625 26.588 Q 50.462 22.744 52.465 19.886 A 15.888 15.888 0 0 1 54.883 17.163 A 19.537 19.537 0 0 1 62.865 12.919 Q 65.827 12.102 69.343 11.949 A 38.014 38.014 0 0 1 70.996 11.914 A 31.081 31.081 0 0 1 79.215 12.905 Q 88.62 15.489 91.155 24.816 A 29.79 29.79 0 0 1 92.09 32.617 L 92.09 37.939 A 764.244 764.244 0 0 1 92.08 41.865 Q 92.053 47.197 91.944 49.896 A 56.141 56.141 0 0 1 91.895 50.928 L 66.504 50.928 L 66.504 65.088 Q 66.504 67.041 66.748 68.921 A 8.693 8.693 0 0 0 67.047 70.34 Q 67.339 71.297 67.847 72.021 Q 68.701 73.242 70.605 73.242 A 4.754 4.754 0 0 0 71.896 73.08 Q 73.379 72.662 73.928 71.165 A 4.336 4.336 0 0 0 74.023 70.874 A 14.878 14.878 0 0 0 74.426 68.986 Q 74.576 68.004 74.645 66.855 A 35.632 35.632 0 0 0 74.707 64.697 L 74.707 57.666 L 92.09 57.666 L 92.09 61.816 A 55.204 55.204 0 0 1 91.805 67.595 Q 91.508 70.409 90.902 72.818 A 27.603 27.603 0 0 1 90.063 75.562 A 16.374 16.374 0 0 1 86.959 80.868 A 15.168 15.168 0 0 1 83.228 83.911 Q 79.667 85.989 74.194 86.529 A 41.598 41.598 0 0 1 70.117 86.719 A 33.861 33.861 0 0 1 65.174 86.38 Q 60.728 85.723 57.666 83.789 A 16.021 16.021 0 0 1 51.286 76.021 A 20.012 20.012 0 0 1 51.025 75.342 Q 49.023 69.824 49.023 62.061 Z M 400.977 62.646 L 400.977 30.811 Q 400.977 24.615 402.592 20.154 A 19.044 19.044 0 0 1 403.979 17.139 A 9.984 9.984 0 0 1 411.22 12.164 A 16.387 16.387 0 0 1 414.16 11.914 A 20.074 20.074 0 0 1 417.246 12.136 Q 418.859 12.387 420.163 12.924 A 8.948 8.948 0 0 1 422.339 14.185 A 13.158 13.158 0 0 1 425.404 17.719 A 17.618 17.618 0 0 1 426.758 20.508 L 426.758 0 L 444.531 0 L 444.531 85.938 L 426.758 85.938 L 426.758 78.174 Q 425.399 81.843 423.22 84.083 A 12.133 12.133 0 0 1 422.876 84.424 A 7.758 7.758 0 0 1 419.806 86.18 Q 418.628 86.55 417.209 86.666 A 16.496 16.496 0 0 1 415.869 86.719 A 22.545 22.545 0 0 1 412.694 86.509 Q 411.061 86.277 409.721 85.785 A 10.315 10.315 0 0 1 407.813 84.863 A 11.37 11.37 0 0 1 403.369 79.736 A 21.74 21.74 0 0 1 402.095 75.943 A 29.914 29.914 0 0 1 401.44 72.07 A 83.651 83.651 0 0 1 401.042 66.329 A 101.537 101.537 0 0 1 400.977 62.646 Z M 359.766 85.938 L 341.992 85.938 L 341.992 12.695 L 359.766 12.695 L 359.766 20.85 A 13.71 13.71 0 0 1 361.523 17.065 A 11.692 11.692 0 0 1 364.258 14.209 A 11.844 11.844 0 0 1 369.001 12.139 A 16.683 16.683 0 0 1 372.363 11.816 L 372.363 26.416 A 24.578 24.578 0 0 0 370.635 26.481 Q 369.098 26.59 367.236 26.88 A 34.786 34.786 0 0 0 364.77 27.351 Q 363.485 27.648 362.372 28.024 A 20.594 20.594 0 0 0 362.012 28.149 Q 360.012 28.867 359.793 29.719 A 0.849 0.849 0 0 0 359.766 29.932 L 359.766 85.938 Z M 116.211 85.938 L 98.438 85.938 L 98.438 0 L 116.211 0 L 116.211 85.938 Z M 141.016 85.938 L 123.242 85.938 L 123.242 0 L 141.016 0 L 141.016 85.938 Z M 394.434 85.938 L 376.66 85.938 L 376.66 0 L 394.434 0 L 394.434 85.938 Z M 147.461 64.014 L 147.461 34.619 A 29.9 29.9 0 0 1 148.244 27.58 A 20.66 20.66 0 0 1 153.271 18.091 A 19.111 19.111 0 0 1 163.639 12.458 A 28.319 28.319 0 0 1 169.336 11.914 A 27.658 27.658 0 0 1 176.025 12.677 A 18.893 18.893 0 0 1 185.449 18.091 A 20.826 20.826 0 0 1 190.619 28.205 A 30.466 30.466 0 0 1 191.26 34.619 L 191.26 64.014 A 33.976 33.976 0 0 1 190.211 72.861 Q 187.08 84.441 174.605 86.344 A 34.974 34.974 0 0 1 169.336 86.719 A 30.241 30.241 0 0 1 160.547 85.553 Q 150.886 82.616 148.357 72.275 A 34.866 34.866 0 0 1 147.461 64.014 Z M 291.748 64.014 L 291.748 34.619 A 29.9 29.9 0 0 1 292.531 27.58 A 20.66 20.66 0 0 1 297.559 18.091 A 19.111 19.111 0 0 1 307.926 12.458 A 28.319 28.319 0 0 1 313.623 11.914 A 27.658 27.658 0 0 1 320.312 12.677 A 18.893 18.893 0 0 1 329.736 18.091 A 20.826 20.826 0 0 1 334.906 28.205 A 30.466 30.466 0 0 1 335.547 34.619 L 335.547 64.014 A 33.976 33.976 0 0 1 334.498 72.861 Q 331.367 84.441 318.893 86.344 A 34.974 34.974 0 0 1 313.623 86.719 A 30.241 30.241 0 0 1 304.834 85.553 Q 295.173 82.616 292.644 72.275 A 34.866 34.866 0 0 1 291.748 64.014 Z M 464.502 62.549 L 453.857 62.549 L 450.439 0 L 467.92 0 L 464.502 62.549 Z M 173.438 67.627 L 173.438 31.836 A 14.931 14.931 0 0 0 173.293 29.662 Q 172.902 27.019 171.45 26.03 A 3.668 3.668 0 0 0 169.336 25.439 Q 165.383 25.439 165.24 31.381 A 18.891 18.891 0 0 0 165.234 31.836 L 165.234 67.627 A 10.315 10.315 0 0 0 165.368 69.338 Q 165.591 70.663 166.187 71.655 A 3.14 3.14 0 0 0 168.434 73.166 A 5.081 5.081 0 0 0 169.336 73.242 A 4.755 4.755 0 0 0 170.559 73.095 A 3.087 3.087 0 0 0 172.485 71.655 Q 173.438 70.068 173.438 67.627 Z M 317.725 67.627 L 317.725 31.836 A 14.931 14.931 0 0 0 317.58 29.662 Q 317.189 27.019 315.737 26.03 A 3.668 3.668 0 0 0 313.623 25.439 Q 309.67 25.439 309.527 31.381 A 18.891 18.891 0 0 0 309.521 31.836 L 309.521 67.627 A 10.315 10.315 0 0 0 309.655 69.338 Q 309.879 70.663 310.474 71.655 A 3.14 3.14 0 0 0 312.721 73.166 A 5.081 5.081 0 0 0 313.623 73.242 A 4.755 4.755 0 0 0 314.846 73.095 A 3.087 3.087 0 0 0 316.772 71.655 Q 317.725 70.068 317.725 67.627 Z M 426.758 63.867 L 426.758 33.057 A 17.614 17.614 0 0 0 426.001 27.954 A 4.2 4.2 0 0 0 425.43 26.739 Q 424.516 25.439 422.656 25.439 A 5.06 5.06 0 0 0 421.318 25.603 Q 419.764 26.03 419.183 27.564 A 4.369 4.369 0 0 0 419.092 27.832 A 16.767 16.767 0 0 0 418.431 31.33 A 20.405 20.405 0 0 0 418.359 33.057 L 418.359 63.867 A 30.3 30.3 0 0 0 418.495 66.87 Q 418.791 69.828 419.736 71.369 A 3.166 3.166 0 0 0 422.559 73.047 A 4.754 4.754 0 0 0 423.83 72.889 A 3.051 3.051 0 0 0 425.903 71.045 Q 426.758 69.043 426.758 63.867 Z M 467.92 85.889 L 450.439 85.889 L 450.439 71.338 L 467.92 71.338 L 467.92 85.889 Z M 66.406 32.373 L 66.406 42.236 L 74.707 42.236 L 74.707 32.373 Q 74.707 28.418 73.73 26.685 A 3.646 3.646 0 0 0 72.902 25.663 Q 72.052 24.951 70.801 24.951 Q 68.741 24.951 67.598 26.549 A 4.662 4.662 0 0 0 67.554 26.611 A 4.867 4.867 0 0 0 66.961 27.85 Q 66.536 29.131 66.436 31.107 A 25.287 25.287 0 0 0 66.406 32.373 Z"
      vector-effect="none"
    >
      <animate attributeName="stroke-dashoffset" begin="0" dur="5s" repeatCount="indefinite" from="1000" to="0" />
    </path>
  </g>
</svg>
