<svg width="300" height="300" xmlns="http://www.w3.org/2000/svg">
  <path
    d="M 10 315
           L 110 215
           A 30 50 0 0 1 162.55 162.45
           L 172.55 152.45
           A 30 50 -45 0 1 215.1 109.9
           L 315 10"
    stroke="black"
    fill="green"
    stroke-width="2"
    fill-opacity="0.5"
  />

  <path d="M 10 10 C 20 20, 40 20, 50 10" stroke="black" fill="transparent" />
  <path d="M 70 10 C 70 20, 110 20, 110 10" stroke="black" fill="transparent" />
  <path d="M 130 10 C 120 20, 180 20, 170 10" stroke="black" fill="transparent" />
  <path d="M 10 60 C 20 80, 40 80, 50 60" stroke="black" fill="transparent" />
  <path d="M 70 60 C 70 80, 110 80, 110 60" stroke="black" fill="transparent" />
  <path d="M 130 60 C 120 80, 180 80, 170 60" stroke="black" fill="transparent" />
  <path d="M 10 110 C 20 140, 40 140, 50 110" stroke="black" fill="transparent" />
  <path d="M 70 110 C 70 140, 110 140, 110 110" stroke="black" fill="transparent" />
  <path d="M 130 110 C 120 140, 180 140, 170 110" stroke="black" fill="transparent" />

  <path
    d="M 80 80
  A 45 45, 0, 0, 0, 125 125
  L 125 80 Z"
    fill="green"
  />
  <path
    d="M 230 80
  A 45 45, 0, 1, 0, 275 125
  L 275 80 Z"
    fill="red"
  />
  <path
    d="M 80 230
  A 45 45, 0, 0, 1, 125 275
  L 125 230 Z"
    fill="purple"
  />
  <path
    d="M 230 230
  A 45 45, 0, 1, 1, 275 275
  L 275 230 Z"
    fill="blue"
  />
</svg>
